<mxfile host="app.diagrams.net" modified="2020-11-03T14:40:07.015Z" agent="5.0 (Windows NT 10.0; Win64; x64) AppleWebKit/537.36 (KHTML, like Gecko) Chrome/86.0.4240.111 Safari/537.36" etag="rRgjA9tdGa1Nt3wbQEpu" version="13.8.8" type="github">
  <diagram id="C5RBs43oDa-KdzZeNtuy" name="Page-1">
    <mxGraphModel dx="956" dy="2918" grid="1" gridSize="10" guides="1" tooltips="1" connect="1" arrows="1" fold="1" page="1" pageScale="1" pageWidth="827" pageHeight="1169" math="0" shadow="0">
      <root>
        <mxCell id="WIyWlLk6GJQsqaUBKTNV-0" />
        <mxCell id="WIyWlLk6GJQsqaUBKTNV-1" parent="WIyWlLk6GJQsqaUBKTNV-0" />
        <mxCell id="uzmEzicX49uGNfXsnaun-2" value="Dungeon Run" style="ellipse;whiteSpace=wrap;html=1;aspect=fixed;" parent="WIyWlLk6GJQsqaUBKTNV-1" vertex="1">
          <mxGeometry x="20" y="-1195" width="130" height="130" as="geometry" />
        </mxCell>
        <mxCell id="uzmEzicX49uGNfXsnaun-3" value="KartClass" style="rounded=0;whiteSpace=wrap;html=1;glass=0;shadow=0;sketch=0;" parent="WIyWlLk6GJQsqaUBKTNV-1" vertex="1">
          <mxGeometry x="60" y="-950" width="120" height="60" as="geometry" />
        </mxCell>
        <mxCell id="uzmEzicX49uGNfXsnaun-8" value="Röra sig på kartan" style="rounded=0;whiteSpace=wrap;html=1;" parent="WIyWlLk6GJQsqaUBKTNV-1" vertex="1">
          <mxGeometry x="60" y="-850" width="120" height="60" as="geometry" />
        </mxCell>
        <mxCell id="xiyUqdjXXNvvletJDRz0-41" style="edgeStyle=orthogonalEdgeStyle;rounded=0;orthogonalLoop=1;jettySize=auto;html=1;" edge="1" parent="WIyWlLk6GJQsqaUBKTNV-1" source="uzmEzicX49uGNfXsnaun-10" target="xiyUqdjXXNvvletJDRz0-40">
          <mxGeometry relative="1" as="geometry" />
        </mxCell>
        <mxCell id="uzmEzicX49uGNfXsnaun-10" value="Vad händer i ett rum?" style="rounded=0;whiteSpace=wrap;html=1;" parent="WIyWlLk6GJQsqaUBKTNV-1" vertex="1">
          <mxGeometry x="60" y="-750" width="120" height="60" as="geometry" />
        </mxCell>
        <mxCell id="xiyUqdjXXNvvletJDRz0-1" value="Skapa karaktär" style="ellipse;whiteSpace=wrap;html=1;" vertex="1" parent="WIyWlLk6GJQsqaUBKTNV-1">
          <mxGeometry x="280" y="-1115" width="120" height="80" as="geometry" />
        </mxCell>
        <mxCell id="xiyUqdjXXNvvletJDRz0-3" value="spara spel" style="shape=cube;whiteSpace=wrap;html=1;boundedLbl=1;backgroundOutline=1;darkOpacity=0.05;darkOpacity2=0.1;" vertex="1" parent="WIyWlLk6GJQsqaUBKTNV-1">
          <mxGeometry x="680" y="-1115" width="120" height="80" as="geometry" />
        </mxCell>
        <mxCell id="xiyUqdjXXNvvletJDRz0-38" style="edgeStyle=orthogonalEdgeStyle;rounded=0;orthogonalLoop=1;jettySize=auto;html=1;" edge="1" parent="WIyWlLk6GJQsqaUBKTNV-1" source="xiyUqdjXXNvvletJDRz0-10" target="xiyUqdjXXNvvletJDRz0-1">
          <mxGeometry relative="1" as="geometry" />
        </mxCell>
        <mxCell id="xiyUqdjXXNvvletJDRz0-10" value="Skattclass" style="rounded=0;whiteSpace=wrap;html=1;shadow=0;glass=0;sketch=0;" vertex="1" parent="WIyWlLk6GJQsqaUBKTNV-1">
          <mxGeometry x="270" y="-940" width="120" height="60" as="geometry" />
        </mxCell>
        <mxCell id="xiyUqdjXXNvvletJDRz0-43" style="edgeStyle=orthogonalEdgeStyle;rounded=0;orthogonalLoop=1;jettySize=auto;html=1;" edge="1" parent="WIyWlLk6GJQsqaUBKTNV-1" source="xiyUqdjXXNvvletJDRz0-11" target="xiyUqdjXXNvvletJDRz0-24">
          <mxGeometry relative="1" as="geometry" />
        </mxCell>
        <mxCell id="xiyUqdjXXNvvletJDRz0-11" value="Monsterclass" style="rounded=0;whiteSpace=wrap;html=1;shadow=0;glass=0;sketch=0;" vertex="1" parent="WIyWlLk6GJQsqaUBKTNV-1">
          <mxGeometry x="340" y="-790" width="120" height="60" as="geometry" />
        </mxCell>
        <mxCell id="xiyUqdjXXNvvletJDRz0-12" value="Knight" style="ellipse;whiteSpace=wrap;html=1;rounded=0;shadow=0;glass=0;sketch=0;" vertex="1" parent="WIyWlLk6GJQsqaUBKTNV-1">
          <mxGeometry x="470" y="-1160" width="80" height="60" as="geometry" />
        </mxCell>
        <mxCell id="xiyUqdjXXNvvletJDRz0-14" value="Wichard" style="ellipse;whiteSpace=wrap;html=1;rounded=0;shadow=0;glass=0;sketch=0;" vertex="1" parent="WIyWlLk6GJQsqaUBKTNV-1">
          <mxGeometry x="470" y="-1090" width="80" height="60" as="geometry" />
        </mxCell>
        <mxCell id="xiyUqdjXXNvvletJDRz0-15" value="Thief" style="ellipse;whiteSpace=wrap;html=1;rounded=0;shadow=0;glass=0;sketch=0;" vertex="1" parent="WIyWlLk6GJQsqaUBKTNV-1">
          <mxGeometry x="470" y="-1020" width="80" height="60" as="geometry" />
        </mxCell>
        <mxCell id="xiyUqdjXXNvvletJDRz0-16" value="Troll" style="rounded=0;whiteSpace=wrap;html=1;shadow=0;glass=0;sketch=0;" vertex="1" parent="WIyWlLk6GJQsqaUBKTNV-1">
          <mxGeometry x="660" y="-890" width="65" height="40" as="geometry" />
        </mxCell>
        <mxCell id="xiyUqdjXXNvvletJDRz0-17" value="Orc" style="rounded=0;whiteSpace=wrap;html=1;shadow=0;glass=0;sketch=0;" vertex="1" parent="WIyWlLk6GJQsqaUBKTNV-1">
          <mxGeometry x="655" y="-830" width="70" height="40" as="geometry" />
        </mxCell>
        <mxCell id="xiyUqdjXXNvvletJDRz0-18" value="Skeleton" style="rounded=0;whiteSpace=wrap;html=1;shadow=0;glass=0;sketch=0;" vertex="1" parent="WIyWlLk6GJQsqaUBKTNV-1">
          <mxGeometry x="655" y="-760" width="70" height="40" as="geometry" />
        </mxCell>
        <mxCell id="xiyUqdjXXNvvletJDRz0-19" value="GiantSpider" style="rounded=0;whiteSpace=wrap;html=1;shadow=0;glass=0;sketch=0;" vertex="1" parent="WIyWlLk6GJQsqaUBKTNV-1">
          <mxGeometry x="655" y="-690" width="70" height="40" as="geometry" />
        </mxCell>
        <mxCell id="xiyUqdjXXNvvletJDRz0-23" style="edgeStyle=orthogonalEdgeStyle;rounded=0;orthogonalLoop=1;jettySize=auto;html=1;exitX=0.25;exitY=1;exitDx=0;exitDy=0;entryX=0.5;entryY=1;entryDx=0;entryDy=0;" edge="1" parent="WIyWlLk6GJQsqaUBKTNV-1" source="xiyUqdjXXNvvletJDRz0-17" target="xiyUqdjXXNvvletJDRz0-17">
          <mxGeometry relative="1" as="geometry" />
        </mxCell>
        <mxCell id="xiyUqdjXXNvvletJDRz0-24" value="Hämta monster metod" style="rounded=0;whiteSpace=wrap;html=1;shadow=0;glass=0;sketch=0;" vertex="1" parent="WIyWlLk6GJQsqaUBKTNV-1">
          <mxGeometry x="520" y="-790" width="85" height="50" as="geometry" />
        </mxCell>
        <mxCell id="xiyUqdjXXNvvletJDRz0-25" style="edgeStyle=orthogonalEdgeStyle;rounded=0;orthogonalLoop=1;jettySize=auto;html=1;exitX=0.75;exitY=1;exitDx=0;exitDy=0;entryX=1;entryY=0.5;entryDx=0;entryDy=0;" edge="1" parent="WIyWlLk6GJQsqaUBKTNV-1" source="xiyUqdjXXNvvletJDRz0-17" target="xiyUqdjXXNvvletJDRz0-17">
          <mxGeometry relative="1" as="geometry" />
        </mxCell>
        <mxCell id="xiyUqdjXXNvvletJDRz0-27" style="edgeStyle=orthogonalEdgeStyle;rounded=0;orthogonalLoop=1;jettySize=auto;html=1;entryX=1;entryY=0.5;entryDx=0;entryDy=0;" edge="1" parent="WIyWlLk6GJQsqaUBKTNV-1" source="xiyUqdjXXNvvletJDRz0-26" target="xiyUqdjXXNvvletJDRz0-12">
          <mxGeometry relative="1" as="geometry">
            <mxPoint x="620" y="-1150" as="targetPoint" />
            <Array as="points">
              <mxPoint x="620" y="-1130" />
            </Array>
          </mxGeometry>
        </mxCell>
        <mxCell id="xiyUqdjXXNvvletJDRz0-28" style="edgeStyle=orthogonalEdgeStyle;rounded=0;orthogonalLoop=1;jettySize=auto;html=1;" edge="1" parent="WIyWlLk6GJQsqaUBKTNV-1" source="xiyUqdjXXNvvletJDRz0-26">
          <mxGeometry relative="1" as="geometry">
            <mxPoint x="620" y="-1130" as="targetPoint" />
          </mxGeometry>
        </mxCell>
        <mxCell id="xiyUqdjXXNvvletJDRz0-29" style="edgeStyle=orthogonalEdgeStyle;rounded=0;orthogonalLoop=1;jettySize=auto;html=1;" edge="1" parent="WIyWlLk6GJQsqaUBKTNV-1" source="xiyUqdjXXNvvletJDRz0-26" target="xiyUqdjXXNvvletJDRz0-14">
          <mxGeometry relative="1" as="geometry" />
        </mxCell>
        <mxCell id="xiyUqdjXXNvvletJDRz0-30" style="edgeStyle=orthogonalEdgeStyle;rounded=0;orthogonalLoop=1;jettySize=auto;html=1;entryX=1;entryY=0.5;entryDx=0;entryDy=0;" edge="1" parent="WIyWlLk6GJQsqaUBKTNV-1" source="xiyUqdjXXNvvletJDRz0-26" target="xiyUqdjXXNvvletJDRz0-15">
          <mxGeometry relative="1" as="geometry">
            <mxPoint x="620" y="-980" as="targetPoint" />
            <Array as="points">
              <mxPoint x="620" y="-990" />
            </Array>
          </mxGeometry>
        </mxCell>
        <mxCell id="xiyUqdjXXNvvletJDRz0-26" value="Special attribut" style="ellipse;whiteSpace=wrap;html=1;rounded=0;shadow=0;glass=0;sketch=0;" vertex="1" parent="WIyWlLk6GJQsqaUBKTNV-1">
          <mxGeometry x="580" y="-1090" width="80" height="60" as="geometry" />
        </mxCell>
        <mxCell id="xiyUqdjXXNvvletJDRz0-33" value="" style="curved=1;endArrow=classic;html=1;exitX=0.5;exitY=1;exitDx=0;exitDy=0;entryX=0;entryY=0;entryDx=70;entryDy=80;entryPerimeter=0;" edge="1" parent="WIyWlLk6GJQsqaUBKTNV-1" source="xiyUqdjXXNvvletJDRz0-1" target="xiyUqdjXXNvvletJDRz0-3">
          <mxGeometry width="50" height="50" relative="1" as="geometry">
            <mxPoint x="460" y="-890" as="sourcePoint" />
            <mxPoint x="510" y="-940" as="targetPoint" />
            <Array as="points">
              <mxPoint x="460" y="-910" />
              <mxPoint x="670" y="-970" />
            </Array>
          </mxGeometry>
        </mxCell>
        <mxCell id="xiyUqdjXXNvvletJDRz0-36" value="" style="curved=1;endArrow=classic;html=1;exitX=0;exitY=0;exitDx=50;exitDy=0;exitPerimeter=0;entryX=1;entryY=0;entryDx=0;entryDy=0;" edge="1" parent="WIyWlLk6GJQsqaUBKTNV-1" source="xiyUqdjXXNvvletJDRz0-3" target="xiyUqdjXXNvvletJDRz0-52">
          <mxGeometry width="50" height="50" relative="1" as="geometry">
            <mxPoint x="460" y="-890" as="sourcePoint" />
            <mxPoint x="510" y="-940" as="targetPoint" />
            <Array as="points">
              <mxPoint x="610" y="-1170" />
              <mxPoint x="480" y="-1200" />
            </Array>
          </mxGeometry>
        </mxCell>
        <mxCell id="xiyUqdjXXNvvletJDRz0-39" value="" style="curved=1;endArrow=classic;html=1;exitX=1;exitY=0;exitDx=0;exitDy=0;entryX=0.5;entryY=1;entryDx=0;entryDy=0;" edge="1" parent="WIyWlLk6GJQsqaUBKTNV-1" source="uzmEzicX49uGNfXsnaun-10" target="xiyUqdjXXNvvletJDRz0-10">
          <mxGeometry width="50" height="50" relative="1" as="geometry">
            <mxPoint x="460" y="-790" as="sourcePoint" />
            <mxPoint x="510" y="-840" as="targetPoint" />
            <Array as="points">
              <mxPoint x="280" y="-770" />
              <mxPoint x="330" y="-850" />
            </Array>
          </mxGeometry>
        </mxCell>
        <mxCell id="xiyUqdjXXNvvletJDRz0-42" style="edgeStyle=orthogonalEdgeStyle;rounded=0;orthogonalLoop=1;jettySize=auto;html=1;" edge="1" parent="WIyWlLk6GJQsqaUBKTNV-1" source="xiyUqdjXXNvvletJDRz0-40" target="xiyUqdjXXNvvletJDRz0-11">
          <mxGeometry relative="1" as="geometry" />
        </mxCell>
        <mxCell id="xiyUqdjXXNvvletJDRz0-40" value="Vilka monster?" style="rounded=0;whiteSpace=wrap;html=1;shadow=0;glass=0;sketch=0;" vertex="1" parent="WIyWlLk6GJQsqaUBKTNV-1">
          <mxGeometry x="220" y="-735" width="80" height="30" as="geometry" />
        </mxCell>
        <mxCell id="xiyUqdjXXNvvletJDRz0-46" style="edgeStyle=orthogonalEdgeStyle;rounded=0;orthogonalLoop=1;jettySize=auto;html=1;exitX=1;exitY=0;exitDx=0;exitDy=0;exitPerimeter=0;entryX=1;entryY=0.75;entryDx=0;entryDy=0;" edge="1" parent="WIyWlLk6GJQsqaUBKTNV-1" source="xiyUqdjXXNvvletJDRz0-44" target="xiyUqdjXXNvvletJDRz0-19">
          <mxGeometry relative="1" as="geometry" />
        </mxCell>
        <mxCell id="xiyUqdjXXNvvletJDRz0-47" style="edgeStyle=orthogonalEdgeStyle;rounded=0;orthogonalLoop=1;jettySize=auto;html=1;exitX=1;exitY=1;exitDx=0;exitDy=0;exitPerimeter=0;entryX=1;entryY=0.5;entryDx=0;entryDy=0;" edge="1" parent="WIyWlLk6GJQsqaUBKTNV-1" source="xiyUqdjXXNvvletJDRz0-44" target="xiyUqdjXXNvvletJDRz0-16">
          <mxGeometry relative="1" as="geometry" />
        </mxCell>
        <mxCell id="xiyUqdjXXNvvletJDRz0-44" value="" style="strokeWidth=2;html=1;shape=mxgraph.flowchart.annotation_2;align=left;labelPosition=right;pointerEvents=1;rounded=0;shadow=0;glass=0;sketch=0;direction=west;" vertex="1" parent="WIyWlLk6GJQsqaUBKTNV-1">
          <mxGeometry x="740" y="-870" width="45" height="210" as="geometry" />
        </mxCell>
        <mxCell id="xiyUqdjXXNvvletJDRz0-50" value="" style="endArrow=classic;html=1;exitX=0;exitY=0.5;exitDx=0;exitDy=0;exitPerimeter=0;entryX=1;entryY=1;entryDx=0;entryDy=0;" edge="1" parent="WIyWlLk6GJQsqaUBKTNV-1" source="xiyUqdjXXNvvletJDRz0-44" target="uzmEzicX49uGNfXsnaun-10">
          <mxGeometry width="50" height="50" relative="1" as="geometry">
            <mxPoint x="460" y="-780" as="sourcePoint" />
            <mxPoint x="510" y="-830" as="targetPoint" />
            <Array as="points">
              <mxPoint x="785" y="-620" />
              <mxPoint x="480" y="-620" />
            </Array>
          </mxGeometry>
        </mxCell>
        <mxCell id="xiyUqdjXXNvvletJDRz0-51" value="Nytt Spel" style="rounded=0;whiteSpace=wrap;html=1;shadow=0;glass=0;sketch=0;" vertex="1" parent="WIyWlLk6GJQsqaUBKTNV-1">
          <mxGeometry x="50" y="-1040" width="90" height="45" as="geometry" />
        </mxCell>
        <mxCell id="xiyUqdjXXNvvletJDRz0-52" value="Ladda spel" style="rounded=0;whiteSpace=wrap;html=1;shadow=0;glass=0;sketch=0;" vertex="1" parent="WIyWlLk6GJQsqaUBKTNV-1">
          <mxGeometry x="230" y="-1180" width="80" height="40" as="geometry" />
        </mxCell>
        <mxCell id="xiyUqdjXXNvvletJDRz0-53" value="" style="rounded=0;whiteSpace=wrap;html=1;shadow=0;glass=0;sketch=0;" vertex="1" parent="WIyWlLk6GJQsqaUBKTNV-1">
          <mxGeometry x="450" y="-900" width="110" height="60" as="geometry" />
        </mxCell>
      </root>
    </mxGraphModel>
  </diagram>
</mxfile>
